<?xml version="1.0" encoding="utf-8"?>
<!-- Generator: Adobe Illustrator 16.0.0, SVG Export Plug-In . SVG Version: 6.00 Build 0)  -->
<!DOCTYPE svg PUBLIC "-//W3C//DTD SVG 1.1 Tiny//EN" "http://www.w3.org/Graphics/SVG/1.1/DTD/svg11-tiny.dtd">
<svg xmlns="http://www.w3.org/2000/svg" xmlns:xlink="http://www.w3.org/1999/xlink" version="1.1" baseProfile="tiny" id="Layer_1" x="0px" y="0px" width="512px" height="512px" viewBox="0 0 24 24" xml:space="preserve">
<g>
	<path d="M23,2.1H1c-0.221,0-0.4,0.18-0.4,0.4v19c0,0.221,0.18,0.4,0.4,0.4h22c0.221,0,0.4-0.18,0.4-0.4v-19   C23.4,2.279,23.221,2.1,23,2.1z M22.6,2.9V6.1H1.4V2.9H22.6z M1.4,21.1V6.9H22.6V21.1H1.4z" fill="#FFFFFF"/>
	<circle cx="3.404" cy="4.484" r="0.405" fill="#FFFFFF"/>
	<circle cx="5.088" cy="4.484" r="0.405" fill="#FFFFFF"/>
	<circle cx="6.732" cy="4.484" r="0.405" fill="#FFFFFF"/>
	<path d="M15.126,16.082l-2.561-2.561l2.561-2.561c0.156-0.156,0.156-0.41,0-0.566c-0.155-0.156-0.41-0.156-0.565,0L12,12.955   l-2.561-2.561c-0.156-0.156-0.41-0.156-0.566,0s-0.156,0.41,0,0.566l2.561,2.561l-2.56,2.56c-0.156,0.156-0.156,0.41,0,0.566   c0.155,0.156,0.41,0.156,0.565,0L12,14.088l2.561,2.561c0.155,0.155,0.41,0.155,0.565,0C15.282,16.492,15.282,16.238,15.126,16.082   z" fill="#FFFFFF"/>
</g>
</svg>
